# xmcd
#
# Track frame offsets: 
#        150
#        21150
#        47367
#        72732
#        99270
#        127072
#        151112
#        174847
#        192542
#        219732
#
# Disc length: 3238 seconds
#
# Revision: 0
# Processed by: cddbd v1.5.2PL0 Copyright (c) Steve Scherf et al.
# Submitted via: ExactAudioCopy v1.0b3
#
DISCID=870ca40a
DTITLE=SAKURA - Lana
DYEAR=2004
DGENRE=JPop
TTITLE0=SURF
TTITLE1=beach bum
TTITLE2=言の葉
TTITLE3=虹へのプレリュード
TTITLE4=sweet Louise(feat.KAMA AINA)
TTITLE5=your flow my flow(feat.Char)
TTITLE6=One+Only Love(feat.SPHERE of INFLUENCE)
TTITLE7=Do it!
TTITLE8=heart＆soul(feat.LAULA)
TTITLE9=melody
EXTD=
EXTT0=
EXTT1=
EXTT2=
EXTT3=
EXTT4=
EXTT5=
EXTT6=
EXTT7=
EXTT8=
EXTT9=
PLAYORDER=
